<svg width="193" height="278" viewBox="0 0 193 278" fill="none" xmlns="http://www.w3.org/2000/svg">
<g clip-path="url(#clip0_225_851)">
<path d="M125.151 96.9315C127.617 96.52 130.744 96.0868 133.269 96.0435C138.231 95.9537 150.075 114.324 150.075 114.324L193.003 102.306L165.302 67.6419C165.302 67.6419 144.854 75.659 140.884 72.704C138.865 71.2034 136.586 69.0374 134.829 67.2706C134.414 64.8262 133.977 61.7259 133.934 59.2227C133.843 54.3029 152.372 42.5605 152.372 42.5605L140.247 0L105.284 27.464C105.284 27.464 113.37 47.7371 110.39 51.6729C108.876 53.6748 106.691 55.9336 104.909 57.6756C102.444 58.0871 99.3166 58.5203 96.7918 58.5636C91.8295 58.6533 79.9857 40.2832 79.9857 40.2832L37.0576 52.301L64.7588 86.9651C64.7588 86.9651 85.207 78.9481 89.1768 81.903C91.196 83.4037 93.4743 85.5696 95.2313 87.3364C95.6464 89.7808 96.0833 92.8812 96.127 95.3844C96.2175 100.304 77.6887 112.047 77.6887 112.047L89.8103 154.607L124.774 127.143C124.774 127.143 116.688 106.87 119.668 102.934C121.182 100.932 123.366 98.6735 125.148 96.9315H125.151ZM110.193 92.1355C101.932 89.4869 97.4004 80.6994 100.072 72.506C102.743 64.3157 111.607 59.8229 119.871 62.4716C128.132 65.1202 132.663 73.9077 129.992 82.1011C127.32 90.2914 118.457 94.7841 110.193 92.1355Z" fill="#F39B9D"/>
<path d="M13.0516 88.2369L9.42822 91.1361L10.6391 98.064L11.0043 95.6815L11.8064 98.064V94.8151L12.9705 96.9068V94.6697L14.2095 96.9068L13.0578 88.2338L13.0516 88.2369ZM18.6443 121.954L18.2073 123.541L17.6237 121.954L17.1868 123.541L16.0945 122.313V123.613L15.1488 122.313V123.325L14.2032 122.313L15.8261 129.984C17.1962 129.903 18.7129 129.813 20.3015 129.717L18.6474 121.954H18.6443Z" fill="#F39B9D"/>
<path d="M96.9198 74.8143C96.7544 73.5333 95.4218 70.2504 93.5617 67.1841C91.4957 63.7774 89.3797 61.6517 87.9004 61.5C85.9654 61.2989 82.005 63.6412 78.8248 65.5256C75.0922 67.7348 72.6142 69.1427 70.8353 69.1427C70.6917 69.1427 70.5544 69.1334 70.4171 69.1148C69.0283 68.923 67.6114 67.9328 66.2413 66.9736C64.9336 66.0578 63.4512 65.0212 62.5524 65.1636C62.2934 65.2038 61.7971 65.5441 61.2042 66.361C61.6348 66.6828 62.1404 67.4749 62.8988 68.7776C63.0174 68.9787 63.1391 69.1922 63.2702 69.4181C64.2002 71.0239 65.717 72.9083 66.7937 74.1738C66.207 72.7536 65.5859 71.0146 65.5859 71.0146C65.5859 71.0146 67.652 75.3589 68.3042 75.5074C68.7536 75.6095 69.4839 75.4548 69.9021 75.3465C68.3947 73.7963 67.5989 70.764 67.5989 70.764C67.5989 70.764 69.5619 74.7586 71.1255 75.4084C72.2803 75.888 73.9 74.8205 74.6678 74.2326C72.5643 73.5581 70.5201 71.6644 70.5201 71.6644C70.5201 71.6644 74.2464 73.6107 75.6071 73.5117C75.9785 73.4838 76.7588 72.701 77.7575 71.5685C78.6532 70.5505 79.7205 69.2541 80.8253 67.9669C82.9975 65.4358 85.3038 62.945 86.6895 62.7284C89.5607 62.2798 94.9973 72.4132 94.9973 72.4132C94.9973 72.4132 90.6655 65.4235 88.0096 64.9253C86.6957 64.6778 84.6078 66.7416 82.5231 69.0034C83.45 69.8574 84.302 71.1415 84.8856 72.6855C86.1152 75.9406 85.6752 79.1183 83.8963 79.7774C83.8027 79.8114 83.7059 79.8393 83.6092 79.8578C86.5241 81.1048 88.8242 77.9085 88.8242 77.9085C86.0684 82.6116 82.8102 80.6685 80.9845 78.9079C80.482 78.4778 79.9951 77.9178 79.5582 77.2587C79.1338 76.6182 78.753 75.8818 78.4503 75.0742C78.2693 74.5977 78.1257 74.1212 78.0165 73.6571C77.6264 73.9696 77.2706 74.1986 76.9647 74.313C76.9647 74.313 73.7908 76.6584 71.3502 76.2098C70.9851 76.1417 70.6449 75.9715 70.3297 75.7333C69.8834 75.8942 68.7474 76.2593 68.0514 76.117C67.9422 76.1479 67.8142 76.1324 67.6738 76.0829C67.4585 76.8905 67.1589 77.6145 66.8031 78.221C66.8031 78.221 64.9617 82.0578 62.2029 80.8449C62.2029 80.8449 63.1298 80.9129 64.1222 80.158C64.091 80.158 64.0598 80.158 64.0317 80.1549C62.1404 79.9909 60.8577 77.0483 61.1667 73.5828C61.2947 72.1533 61.6723 70.8599 62.206 69.842C61.6629 69.1148 61.2323 68.561 61.0075 68.3722C60.4988 67.9483 59.8809 69.0963 59.3784 70.3123C58.8635 72.1007 58.6481 74.0439 58.9727 75.6652L59.0164 75.7209L59.0414 76.0241C59.2068 78.0261 59.5907 80.2941 60.2242 82.6302C60.8921 83.2831 62.3839 84.4991 63.601 84.4991C64.1472 84.4991 64.8775 83.7998 65.5797 83.1253C66.1134 82.6147 66.7094 82.0423 67.3867 81.6339L68.8129 77.2587L68.3822 81.1945C68.8441 81.0646 69.3404 81.0367 69.8772 81.1543C70.8166 81.3647 71.8714 82.0423 73.2103 82.9025C75.6352 84.462 78.959 86.5939 82.5293 86.2287C86.2401 85.8451 92.4226 81.2873 95.4748 77.4691C96.6951 75.9406 96.9573 75.068 96.9261 74.8174L96.9198 74.8143Z" fill="#F2D1AD"/>
<path d="M13.0517 88.2368L14.2033 96.9098L12.9643 94.6727V96.9098L11.8002 94.8181V98.067L10.9981 95.6845L10.633 98.067L9.42206 91.1391L2.28455 96.8479C2.63097 98.8746 3.82003 105.694 5.22132 112.662C8.00205 126.484 9.35028 129.625 9.82778 130.336C10.6423 130.296 12.8956 130.163 15.8199 129.99L14.197 122.319L15.1427 123.331V122.319L16.0883 123.619V122.319L17.1806 123.548L17.6176 121.96L18.2012 123.548L18.6381 121.96L20.2922 129.724C25.0703 129.439 30.4851 129.111 34.4205 128.873C34.5204 128.836 34.6203 128.798 34.7201 128.761V128.752C34.7201 128.752 34.7701 128.737 34.8262 128.721C35.1571 128.607 35.4941 128.508 35.8405 128.421L26.2562 77.6733L13.0423 88.2399L13.0517 88.2368ZM58.6544 118.885C58.439 118.959 58.2174 119.021 57.9927 119.073C57.1064 119.275 56.2825 119.364 55.5179 119.364C53.3051 119.364 51.598 118.628 50.359 117.771L51.2578 124.952L58.8073 122.96L58.6544 118.885ZM57.5901 90.4522L57.4528 86.8197L53.6047 85.5603C55.1402 86.5598 56.4729 88.6205 57.587 90.4491L57.5901 90.4522ZM47.4534 114.646C45.1877 115.107 39.7729 116.112 37.9503 115.552C36.8704 115.221 36.1994 114.212 36.1994 112.919C36.1994 111.121 37.5352 108.658 41.1274 106.978C38.9646 105.703 35.5503 103.553 33.7527 101.703C32.3763 100.286 32.161 98.2001 33.2159 96.5137C33.684 95.768 35.1664 93.9765 38.6962 93.7166C38.6774 93.698 38.6556 93.6795 38.6369 93.664C37.323 92.4789 36.8704 90.87 37.4572 89.4652C38.1656 87.7696 40.1318 86.829 42.7221 86.9465C43.6959 86.9929 44.9161 87.3735 46.2644 87.9707L45.6215 82.9519L28.3472 77.3051L37.9347 128.068C38.4964 128.019 39.0707 128 39.6543 128.013L50.1249 125.249L49.0545 116.672C48.3086 115.93 47.7842 115.181 47.4597 114.646H47.4534ZM46.8449 83.3542L47.5127 88.5679C47.9403 88.7845 48.3772 89.0196 48.8204 89.2641C48.8454 87.9738 49.2979 86.7176 49.9845 85.944C50.5275 85.3376 51.1985 85.0189 51.9038 85.0034L46.8449 83.348V83.3542Z" fill="#E76E68"/>
<path d="M107.718 121.864C102.628 122.424 97.8341 122.623 93.5928 122.623C85.9872 122.623 80.1667 121.985 77.6075 121.645L77.9196 123.829C79.1337 124.163 82.0985 124.884 86.4428 125.29C91.43 125.757 99.2417 125.884 108.804 124.015C108.511 123.644 108.249 123.226 108.033 122.746C107.89 122.428 107.787 122.134 107.718 121.861V121.864ZM133.06 119.408C137.014 118.659 143.15 117.034 145.378 113.925C147.594 110.831 148.068 106.109 148.124 103.12C144.507 107.019 138.528 110.923 130.295 114.757C127.111 116.239 124.084 117.471 121.684 118.39L130.956 116.156L120.277 119.971C123.176 119.955 127.842 119.85 133.06 119.411V119.408ZM114.294 118.866C113.841 118.888 113.613 119.077 113.498 119.272C113.404 119.426 113.386 119.587 113.382 119.668L113.367 120.023L114.587 122.245L113.333 120.89L112.122 120.655C111.766 120.587 111.391 120.556 111.042 120.556C111.02 120.556 111.001 120.556 110.983 120.556C110.393 120.562 109.896 120.664 109.756 120.837C109.706 120.902 109.675 121.14 109.85 121.614C109.881 121.7 109.918 121.79 109.962 121.892C110.861 123.876 113.049 124.417 114.412 124.556C114.94 124.609 115.342 124.606 115.505 124.6C115.552 124.587 115.595 124.575 115.639 124.559L115.19 123.343L116.226 124.222C116.319 124.129 116.391 124.021 116.447 123.894C116.535 123.693 116.578 123.452 116.578 123.158C116.578 122.39 116.304 121.564 115.935 120.846C115.399 119.798 114.662 118.968 114.291 118.869L114.294 118.866ZM135.129 121.335C134.517 121.394 133.912 121.45 133.313 121.502C132.074 121.608 130.863 121.694 129.699 121.765C126.063 121.985 122.87 122.056 120.611 122.069L134.58 124.371L119.272 122.938C121.416 123.727 126.069 125.373 131.237 126.797C140.416 129.321 147.017 130.002 150.325 128.774C156.083 126.633 158.576 118.984 159.509 114.937C154.46 118.096 146.28 120.246 135.129 121.338V121.335Z" fill="#F2DA5F"/>
<path d="M160.346 111.719C156.701 114.881 150.378 116.839 143.677 118.049C145.075 117.239 146.28 116.279 147.098 115.138C150.98 109.717 150.194 100.521 150.159 100.131L149.894 97.2192L148.231 99.6326C141.714 109.095 120.617 116.626 116.541 118.012C116.113 117.548 115.651 117.183 115.183 116.972C113.214 107.863 110.146 100.49 107.805 95.734C105.768 91.5909 103.976 88.7721 103.105 87.4787C104.947 85.8697 109.291 81.7204 109.197 78.3787C109.129 75.9034 107.902 73.8395 106.95 72.6019C115.421 69.2447 122.508 58.6873 122.823 58.2139L123.441 57.2826L122.464 56.7287C121.862 56.3883 107.678 48.3527 103.645 47.4307C100.409 46.6912 98.4303 47.1955 97.5814 47.5359C96.4922 47.2265 93.4025 46.3818 91.4145 46.2116C89.2299 46.0228 86.5022 46.8459 85.7344 47.0965C75.5665 46.6231 68.7973 50.3454 64.8993 53.5634C61.3914 56.4595 59.5438 59.4299 58.9539 60.4819C57.8835 60.8966 55.1402 62.2085 53.5236 65.2346C51.598 68.8393 55.8767 75.0308 56.9566 76.4974C57.1937 79.0687 57.768 82.0329 58.7386 85.0312L26.7649 74.579L0 95.9784L0.10299 96.5818C0.118594 96.6684 1.5979 105.45 3.36746 114.113C4.40672 119.216 5.34299 123.285 6.14819 126.209C7.59629 131.463 8.42333 132.44 9.52501 132.44H9.54061C10.0618 132.437 22.7577 131.673 30.8595 131.181C28.2504 133.861 27.4671 137.936 28.6562 142.713C29.839 147.466 33.4156 151.698 39.0051 154.957C42.4162 156.946 45.5652 157.998 46.67 158.332C47.0914 158.982 48.0713 160.347 49.6224 161.649C52.4219 163.998 55.755 165.025 59.266 164.623C61.8813 164.323 63.6228 163.571 64.868 162.457C65.4392 157.417 63.7133 154.793 60.3646 152.772C57.0159 150.752 49.2978 141.658 46.823 136.747C44.3481 131.837 38.3778 129.362 38.3778 129.362C46.5327 129.482 53.0835 145.553 60.9482 150.897C68.8098 156.238 64.868 162.46 64.868 162.46C64.9773 162.373 65.0834 162.274 65.1833 162.163C66.8342 160.492 67.5427 158.113 68.3853 155.288C68.8753 153.645 69.4277 151.785 70.2516 149.746C73.1478 142.568 77.5514 140.467 84.9729 142.719C87.9159 143.613 92.0012 147.036 96.3268 150.662C102.55 155.879 109.603 161.789 116.625 163.373C119.309 163.979 121.7 164.218 123.803 164.218C128.965 164.218 132.373 162.785 134.03 161.86C135.447 165.121 137.607 168.023 140.201 170.131C142.688 172.151 145.387 173.253 147.781 173.253C148.162 173.253 148.533 173.225 148.898 173.169C151.186 172.813 155.072 171.022 155.387 163.026C155.558 158.654 154.697 154.329 152.825 150.176C151.233 146.649 148.955 143.378 146.233 140.711C142.71 137.261 138.94 135.287 136.15 135.426C130.373 135.72 127.779 141.744 127.174 143.4C124.571 144.851 122.748 145.29 121.609 144.743C119.343 143.654 118.566 138.239 117.49 130.742C117.29 129.352 117.078 127.883 116.844 126.335C117.53 125.998 118.042 125.485 118.351 124.832C122.443 126.354 136.83 131.447 146.136 131.447C148.04 131.447 149.732 131.234 151.08 130.732C160.187 127.344 162.034 113.235 162.106 112.638L162.443 109.915L160.358 111.722L160.346 111.719ZM120.405 57.9788C119.706 58.938 118.479 60.5469 116.887 62.3292L119.038 58.941L107.163 51.054C111.31 52.9847 117.137 56.1501 120.405 57.9788ZM106.517 112.115L108.555 117.313C108.555 117.313 107.097 116.134 105.156 116.242C103.215 116.351 93.8956 119.188 86.5178 118.73C86.5178 118.73 102.438 117.505 106.513 112.115H106.517ZM104.816 98.4785C104.816 98.4785 100.893 97.1016 98.0745 99.8926C95.3375 102.603 91.6829 106.588 83.4655 107.959C87.1482 107.158 90.8184 105.626 92.9312 102.755C97.4066 96.6715 101.948 97.4698 102.138 97.5069L104.819 98.4754L104.816 98.4785ZM86.1308 96.5601C86.1308 96.5601 89.9165 93.2524 91.274 90.8452C92.6316 88.4379 98.0714 86.2689 98.0714 86.2689C94.4823 93.5278 86.1308 96.5601 86.1308 96.5601ZM91.2272 48.2971C93.4087 48.4858 97.3224 49.643 97.3598 49.6554L97.7999 49.8194L102.119 53.7181L96.0303 50.3547L90.5375 48.2816C90.7747 48.2754 91.0056 48.2785 91.2241 48.2971H91.2272ZM66.3255 55.1104C71.1598 51.1499 77.0739 49.148 83.9305 49.148C84.5547 49.148 85.1852 49.1634 85.8249 49.1975L86.034 49.2098L86.2338 49.1387L91.6954 51.7718L84.3831 50.0886C75.3075 49.6059 65.0647 58.3655 65.0647 58.3655L66.4379 59.0865L61.8096 59.925C62.724 58.6378 64.2002 56.8494 66.3193 55.1135L66.3255 55.1104ZM59.3753 70.3122C59.8777 69.0962 60.4957 67.9482 61.0044 68.3721C61.2291 68.5609 61.6598 69.1116 62.2028 69.8419C61.6691 70.8598 61.2915 72.1532 61.1635 73.5827C60.8577 77.0482 62.1404 79.9877 64.0285 80.1548C64.0597 80.1548 64.0909 80.1579 64.119 80.1579C63.1266 80.9128 62.1997 80.8448 62.1997 80.8448C64.9586 82.0577 66.7999 78.2209 66.7999 78.2209C67.1557 77.6144 67.4553 76.8904 67.6706 76.0828C67.8142 76.1323 67.939 76.1478 68.0483 76.1169C68.7411 76.2592 69.8771 75.8941 70.3265 75.7332C70.6417 75.9714 70.9819 76.1447 71.3471 76.2097C73.7907 76.6583 76.9616 74.3129 76.9616 74.3129C77.2705 74.1985 77.6232 73.9695 78.0133 73.657C78.1225 74.1242 78.2661 74.5976 78.4471 75.0741C78.753 75.8817 79.1306 76.6181 79.555 77.2586C79.992 77.9177 80.4788 78.4777 80.9813 78.9078C82.807 80.6653 86.0653 82.6115 88.821 77.9084C88.821 77.9084 86.5178 81.1047 83.606 79.8577C83.7027 79.8392 83.7995 79.8113 83.8931 79.7773C85.6689 79.1182 86.1121 75.9436 84.8824 72.6854C84.2988 71.1414 83.4437 69.8604 82.5199 69.0033C84.6047 66.7415 86.6926 64.6808 88.0065 64.9252C90.6623 65.4234 94.9942 72.4131 94.9942 72.4131C94.9942 72.4131 89.5544 62.2766 86.6863 62.7283C85.3037 62.9449 82.9943 65.4357 80.8221 67.9668C79.7173 69.254 78.65 70.5504 77.7543 71.5684C76.7587 72.7009 75.9754 73.4837 75.604 73.5116C74.2433 73.6106 70.5169 71.6643 70.5169 71.6643C70.5169 71.6643 72.5611 73.558 74.6646 74.2325C73.8968 74.8204 72.2771 75.8879 71.1223 75.4083C69.5619 74.7585 67.5957 70.7639 67.5957 70.7639C67.5957 70.7639 68.3916 73.7962 69.899 75.3464C69.4839 75.4547 68.7505 75.6094 68.301 75.5073C67.6457 75.3588 65.5827 71.0145 65.5827 71.0145C65.5827 71.0145 66.2038 72.7535 66.7905 74.1737C65.7138 72.9082 64.1971 71.0207 63.267 69.4179C63.1359 69.1921 63.0111 68.9786 62.8956 68.7775C62.1341 67.4748 61.6317 66.6796 61.201 66.3609C61.794 65.544 62.2933 65.2037 62.5492 65.1634C63.4512 65.0242 64.9305 66.0608 66.2381 66.9735C67.6082 67.9327 69.0251 68.9229 70.4139 69.1147C70.5481 69.1333 70.6885 69.1426 70.8321 69.1426C72.611 69.1426 75.0859 67.7347 78.8216 65.5255C82.0018 63.6411 85.9623 61.2988 87.8972 61.4999C89.3765 61.6546 91.4925 63.7803 93.5585 67.184C95.4186 70.2503 96.7512 73.5332 96.9166 74.8142C96.9479 75.0617 96.6857 75.9374 95.4654 77.4659C92.4132 81.2872 86.2307 85.845 82.5199 86.2256C78.9496 86.5938 75.6258 84.4588 73.2009 82.8993C71.8651 82.0391 70.8071 81.3615 69.8677 81.1511C69.3309 81.0304 68.8347 81.0614 68.3728 81.1913L68.8035 77.2555L67.3773 81.6307C66.7 82.0391 66.1039 82.6116 65.5703 83.1221C64.8649 83.7966 64.1378 84.4959 63.5916 84.4959C62.3744 84.4959 60.8795 83.2799 60.2148 82.627C59.5812 80.2909 59.1974 78.0229 59.032 76.0209L59.007 75.7177L58.9633 75.662C58.6387 74.0407 58.8541 72.0975 59.369 70.3091L59.3753 70.3122ZM64.325 104.101C64.2907 103.865 64.2439 103.596 64.1877 103.312C65.0366 102.984 66.9559 102.594 69.3465 104.317C70.5512 105.187 70.9663 106.817 71.1005 108.03C71.5062 111.641 70.0581 116.434 68.5445 118.145C67.4022 119.435 65.9916 120.076 64.5716 119.946C63.1734 119.819 61.8626 118.94 60.942 117.529C62.3557 116.264 63.4106 114.327 64.0129 111.836C64.5903 109.441 64.7058 106.622 64.325 104.101ZM61.4038 98.0515C61.2353 97.9154 61.0169 97.739 60.7516 97.5286C60.6486 96.8603 60.3927 95.5329 59.8528 94.255L59.5968 87.4323C60.9576 90.873 62.8613 94.2364 65.3924 96.9902L61.4038 98.0515ZM66.0415 90.412C66.3318 89.1124 66.0415 86.2689 66.0415 86.2689L71.2846 96.9098C71.2846 96.9098 65.7513 91.7115 66.0415 90.4151V90.412ZM60.0556 99.6605C60.1867 99.7688 60.3178 99.874 60.4457 99.9792C60.5518 100.066 60.6517 100.171 60.7516 100.292L60.7765 100.388L60.8171 100.378C62.2028 102.17 62.9955 107.052 61.9594 111.347C61.7347 112.275 61.3258 113.547 60.6174 114.661C60.1087 115.462 59.4408 116.183 58.5763 116.638C58.2548 116.808 57.9053 116.942 57.5277 117.028C51.4669 118.408 49.0825 113.253 48.9858 113.037L48.6393 112.248L47.7905 112.43C44.6602 113.105 39.7323 113.9 38.5807 113.547C38.3872 113.488 38.3216 113.173 38.3216 112.919C38.3216 111.867 39.4888 109.515 43.8987 108.166L46.2893 107.436L44.0953 106.245C44.0329 106.211 37.7599 102.795 35.285 100.245C34.5796 99.5213 34.4767 98.4878 35.0228 97.6183C35.9216 96.1826 38.7086 95.0687 43.6708 96.3869C44.2919 96.5911 44.707 96.6901 44.7569 96.6994L50.0094 97.0769L45.3187 94.6789C44.966 94.5675 44.6258 94.4685 44.2919 94.3787C43.1965 94.0136 41.3739 93.2834 40.0693 92.1076C39.4233 91.5259 39.1799 90.8359 39.4202 90.2604C39.6917 89.6106 40.6779 88.9453 42.6316 89.0351C45.637 89.1743 52.734 93.9486 57.8803 97.9247C58.6606 98.528 59.394 99.1097 60.0619 99.6574L60.0556 99.6605ZM58.8104 122.957L51.2609 124.949L50.3621 117.768C51.6011 118.625 53.3082 119.361 55.5209 119.361C56.2856 119.361 57.1095 119.275 57.9958 119.07C58.2205 119.018 58.4421 118.956 58.6574 118.882L58.8104 122.957ZM57.459 86.8196L57.5963 90.4522C56.4791 88.6235 55.1464 86.5628 53.6141 85.5634L57.4621 86.8227L57.459 86.8196ZM52.1878 87.1631C53.5236 87.8005 55.0153 90.2635 56.1077 92.0612C56.5383 92.7697 56.9409 93.4381 57.2999 93.9394C57.4715 94.1776 57.6213 94.4437 57.7555 94.7222C57.8679 94.9542 57.9677 95.1987 58.0582 95.44C57.9646 95.3689 57.871 95.3008 57.7742 95.2265C55.8986 93.8218 53.5672 92.154 51.2266 90.6874C50.696 89.6601 50.9488 88.0356 51.5761 87.3302C51.8664 87.0053 52.038 87.0888 52.1878 87.16V87.1631ZM51.91 85.0034C51.2047 85.0157 50.5337 85.3344 49.9907 85.944C49.301 86.7144 48.8516 87.9738 48.8266 89.264C48.3834 89.0165 47.9465 88.7844 47.5189 88.5678L46.8511 83.3542L51.91 85.0095V85.0034ZM20.3046 129.717C18.7161 129.813 17.1993 129.903 15.8292 129.983C12.9018 130.157 10.6517 130.287 9.8371 130.33C9.3596 129.618 8.01137 126.478 5.23064 112.656C3.82935 105.688 2.64029 98.8684 2.29387 96.8417L9.43138 91.1329L13.0548 88.2337L26.2687 77.667L35.853 128.415C35.5066 128.501 35.1695 128.6 34.8387 128.715C34.7825 128.73 34.7451 128.74 34.7295 128.746V128.755C34.6327 128.792 34.5328 128.826 34.433 128.867C30.4975 129.105 25.0827 129.433 20.3046 129.717ZM39.932 150.417C27.4109 144.161 30.5537 135.092 32.9443 133.672C35.3474 132.242 37.6038 134.346 36.4397 138.434C35.2756 142.521 39.9351 150.417 39.9351 150.417H39.932ZM37.9377 128.068L28.3503 77.305L45.6245 82.9519L46.2674 87.9707C44.9192 87.3735 43.6989 86.9898 42.7252 86.9465C40.1349 86.8289 38.1687 87.7696 37.4602 89.4652C36.8735 90.8699 37.326 92.4789 38.6399 93.664C38.6587 93.6825 38.6805 93.7011 38.6992 93.7166C35.1695 93.9765 33.6871 95.768 33.2189 96.5137C32.1641 98.2 32.3794 100.286 33.7557 101.703C35.5534 103.553 38.9708 105.707 41.1304 106.978C37.5383 108.658 36.2025 111.121 36.2025 112.919C36.2025 114.212 36.8735 115.218 37.9534 115.552C39.776 116.112 45.1907 115.107 47.4565 114.646C47.7811 115.181 48.3054 115.93 49.0513 116.672L50.1218 125.249L39.6511 128.012C39.0675 128 38.4933 128.019 37.9315 128.068H37.9377ZM73.7377 141.516C73.6128 141.599 73.4942 141.689 73.3725 141.775C71.5749 140.194 69.5775 139.087 67.68 138.313C68.6724 140.51 69.565 142.985 70.0269 145.498C69.9114 145.683 69.796 145.869 69.6836 146.064C69.4714 145.696 69.2529 145.343 69.0376 145C68.4977 142.496 67.5302 140.021 66.4972 137.867C64.0753 137.026 61.9438 136.704 60.789 136.586C60.4488 136.382 60.143 136.215 59.884 136.082C59.937 135.952 59.9994 135.81 60.065 135.655C60.7141 135.686 63.0579 135.856 65.9448 136.754C64.4467 133.83 62.9643 131.679 62.6054 131.175C62.6928 131.051 62.7833 130.927 62.8769 130.807C63.0829 130.884 63.3357 130.986 63.6259 131.116C64.3094 132.112 65.7575 134.334 67.1369 137.159C69.0969 137.877 71.2191 138.935 73.1915 140.498C73.3756 140.829 73.5598 141.166 73.7408 141.519L73.7377 141.516ZM62.0218 128.495C59.55 131.398 58.1831 134.588 57.7212 135.797C56.8536 135.931 55.7144 135.157 53.8044 133.796C51.6572 132.264 48.7392 130.188 44.6071 128.876L60.9919 124.553L60.8421 120.543C61.8845 121.394 63.1016 121.92 64.3843 122.035C64.5747 122.053 64.7619 122.059 64.9492 122.059C66.8592 122.059 68.6849 121.174 70.1393 119.525C70.3421 119.296 70.5419 119.027 70.7385 118.727C71.4875 118.897 73.0604 119.225 75.167 119.488L75.707 123.247C70.52 122.245 65.8137 124.036 62.0218 128.492V128.495ZM86.4491 125.29C82.1048 124.884 79.1368 124.163 77.9259 123.829L77.6138 121.645C80.173 121.985 85.9966 122.622 93.5991 122.622C97.8404 122.622 102.634 122.424 107.724 121.864C107.793 122.137 107.896 122.431 108.04 122.749C108.255 123.229 108.517 123.647 108.81 124.018C99.2511 125.887 91.4363 125.757 86.4491 125.293V125.29ZM116.454 123.891C116.397 124.018 116.326 124.126 116.232 124.219L115.196 123.34L115.645 124.556C115.602 124.569 115.558 124.584 115.511 124.597C115.352 124.603 114.946 124.609 114.419 124.553C113.055 124.414 110.867 123.872 109.968 121.889C109.921 121.787 109.887 121.697 109.856 121.611C109.681 121.137 109.712 120.899 109.762 120.834C109.903 120.658 110.396 120.559 110.989 120.552C111.008 120.552 111.029 120.552 111.048 120.552C111.395 120.552 111.772 120.583 112.128 120.651L113.339 120.887L114.593 122.242L113.373 120.02L113.389 119.664C113.392 119.584 113.411 119.426 113.504 119.268C113.62 119.073 113.848 118.888 114.3 118.863C114.668 118.962 115.405 119.791 115.945 120.84C116.313 121.561 116.588 122.384 116.588 123.152C116.588 123.445 116.544 123.687 116.457 123.888L116.454 123.891ZM151.177 165.91C148.945 168.413 145.837 164.852 147.004 160.811C148.168 156.77 146.033 149.263 146.033 149.263C150.306 150.034 153.411 163.41 151.177 165.913V165.91ZM124.093 146.915L127.595 151.47C127.651 148.614 127.333 146.302 127.246 145.73C127.38 145.662 127.517 145.594 127.654 145.522C127.82 145.801 128.016 146.144 128.238 146.534C128.391 147.803 128.581 150.04 128.447 152.58L133.297 158.886C133.35 159.186 133.394 159.48 133.428 159.768C133.322 159.833 133.191 159.907 133.047 159.988L128.35 153.883C128.079 156.662 127.37 159.641 125.788 162.018C125.607 162.033 125.423 162.049 125.236 162.061C125.279 161.745 125.314 161.424 125.342 161.096C126.793 158.663 127.37 155.594 127.542 152.831L123.878 148.069C123.781 147.673 123.691 147.317 123.613 147.008C123.769 146.983 123.931 146.955 124.093 146.918V146.915ZM121.687 118.383C124.087 117.464 127.115 116.233 130.298 114.751C138.534 110.917 144.514 107.012 148.128 103.114C148.071 106.103 147.594 110.827 145.381 113.918C143.153 117.031 137.017 118.653 133.063 119.401C127.845 119.841 123.179 119.946 120.28 119.961L130.96 116.146L121.687 118.38V118.383ZM150.331 128.767C147.023 129.999 140.422 129.315 131.243 126.79C126.075 125.37 121.422 123.721 119.278 122.932L134.586 124.364L120.617 122.062C122.873 122.047 126.066 121.979 129.705 121.759C130.869 121.688 132.08 121.601 133.319 121.496C133.918 121.447 134.524 121.391 135.135 121.329C146.286 120.237 154.466 118.086 159.516 114.927C158.58 118.974 156.089 126.62 150.331 128.764V128.767Z" fill="#4F71AF"/>
<path d="M60.942 117.529C61.8627 118.94 63.1703 119.819 64.5716 119.946C65.9916 120.076 67.4023 119.435 68.5445 118.145C70.0582 116.431 71.5063 111.641 71.1006 108.03C70.9632 106.817 70.5482 105.187 69.3466 104.317C66.956 102.591 65.0366 102.984 64.1878 103.312C64.2439 103.596 64.2907 103.866 64.3251 104.101C64.7058 106.622 64.5904 109.441 64.013 111.836C63.4106 114.327 62.3558 116.264 60.942 117.529ZM66.0385 86.2658C66.0385 86.2658 66.3287 89.1125 66.0385 90.4089C65.7482 91.7085 71.2816 96.9036 71.2816 96.9036L66.0385 86.2627V86.2658ZM44.086 106.245L46.28 107.436L43.8894 108.166C39.4795 109.516 38.3123 111.867 38.3123 112.919C38.3123 113.173 38.381 113.488 38.5713 113.547C39.723 113.9 44.6509 113.108 47.7811 112.43L48.63 112.248L48.9764 113.037C49.0732 113.253 51.4576 118.405 57.5184 117.028C57.8991 116.942 58.2455 116.809 58.567 116.638C59.4315 116.183 60.0994 115.463 60.6081 114.661C61.3165 113.547 61.7254 112.276 61.9501 111.347C62.9893 107.053 62.1935 102.17 60.8078 100.378L60.7672 100.388L60.7423 100.292C60.6424 100.171 60.5394 100.066 60.4364 99.9792C60.3085 99.874 60.1805 99.7688 60.0463 99.6605C59.3784 99.1129 58.645 98.5312 57.8648 97.9278C52.7215 93.9518 45.6215 89.1774 42.616 89.0382C40.6624 88.9485 39.6761 89.6106 39.4046 90.2635C39.1643 90.8359 39.4077 91.5259 40.0538 92.1107C41.3583 93.2865 43.1809 94.0198 44.2764 94.3819C44.6072 94.4716 44.9505 94.5706 45.3031 94.682L49.9939 97.08L44.7414 96.7025C44.6914 96.6901 44.2764 96.5911 43.6553 96.39C38.6962 95.0719 35.9061 96.1858 35.0073 97.6215C34.4611 98.494 34.5641 99.5244 35.2694 100.248C37.7443 102.798 44.0173 106.214 44.0797 106.248L44.086 106.245ZM65.0679 58.3625C65.0679 58.3625 75.3075 49.6059 84.3863 50.0855L91.6986 51.7688L86.237 49.1356L86.0372 49.2068L85.8281 49.1944C85.1883 49.1604 84.5579 49.1449 83.9337 49.1449C77.0771 49.1449 71.163 51.1468 66.3287 55.1074C64.2096 56.8432 62.7334 58.6317 61.819 59.9188L66.4473 59.0803L65.0741 58.3594L65.0679 58.3625ZM102.122 53.715L97.803 49.8163L97.363 49.6523C97.3224 49.64 93.4088 48.4827 91.2304 48.294C91.012 48.2754 90.781 48.2723 90.5438 48.2785L96.0366 50.3516L102.126 53.715H102.122ZM91.2772 90.8421C89.9196 93.2494 86.134 96.5571 86.134 96.5571C86.134 96.5571 94.4855 93.5248 98.0746 86.2658C98.0746 86.2658 92.6348 88.4379 91.2772 90.8421ZM36.4335 138.431C37.5976 134.343 35.3443 132.242 32.9381 133.669C30.5475 135.089 27.4047 144.158 39.9258 150.414C39.9258 150.414 35.2663 142.518 36.4304 138.431H36.4335ZM57.7712 95.2297C57.8679 95.3008 57.9615 95.372 58.0552 95.4432C57.9647 95.1987 57.8648 94.9574 57.7524 94.7253C57.6182 94.4468 57.4653 94.1807 57.2968 93.9425C56.9379 93.4412 56.5322 92.7729 56.1046 92.0643C55.0154 90.2666 53.5205 87.8036 52.1847 87.1662C52.0349 87.0951 51.8633 87.0115 51.573 87.3364C50.9457 88.0388 50.693 89.6632 51.2235 90.6936C53.5642 92.1633 55.8955 93.828 57.7712 95.2328V95.2297ZM60.9451 150.897C53.0836 145.557 46.5297 129.482 38.3747 129.362C38.3747 129.362 44.345 131.84 46.8199 136.747C49.2948 141.655 57.0128 150.752 60.3615 152.772C63.7103 154.793 65.4361 157.42 64.865 162.457C64.865 162.457 68.8067 156.235 60.9451 150.894V150.897ZM146.027 149.26C146.027 149.26 148.162 156.767 146.998 160.808C145.834 164.849 148.939 168.41 151.171 165.907C153.402 163.404 150.297 150.028 146.027 149.257V149.26ZM119.041 58.9411L116.891 62.3292C118.482 60.547 119.709 58.938 120.408 57.9788C117.14 56.147 111.313 52.9848 107.166 51.054L119.041 58.9411ZM128.444 152.58C128.578 150.043 128.388 147.803 128.235 146.534C128.013 146.141 127.817 145.801 127.651 145.523C127.514 145.597 127.377 145.662 127.243 145.73C127.33 146.302 127.648 148.614 127.592 151.47L124.09 146.915C123.928 146.949 123.766 146.98 123.61 147.005C123.691 147.314 123.781 147.67 123.875 148.066L127.539 152.828C127.367 155.594 126.79 158.66 125.339 161.092C125.311 161.42 125.276 161.742 125.233 162.058C125.42 162.045 125.604 162.03 125.785 162.015C127.367 159.638 128.079 156.659 128.347 153.88L133.044 159.985C133.188 159.904 133.319 159.83 133.425 159.765C133.394 159.477 133.347 159.18 133.294 158.883L128.444 152.577V152.58ZM86.521 118.73C93.8988 119.185 103.218 116.351 105.159 116.242C107.1 116.134 108.558 117.313 108.558 117.313L106.52 112.115C102.444 117.505 86.5241 118.73 86.5241 118.73H86.521ZM67.1308 137.156C65.7513 134.328 64.3032 132.109 63.6198 131.113C63.3295 130.983 63.0767 130.881 62.8707 130.803C62.7771 130.927 62.6866 131.051 62.5992 131.172C62.9581 131.676 64.4405 133.827 65.9386 136.751C63.0517 135.853 60.7079 135.683 60.0588 135.652C59.9933 135.804 59.9308 135.949 59.8778 136.079C60.1368 136.212 60.4427 136.379 60.7828 136.583C61.9376 136.704 64.0692 137.023 66.491 137.864C67.524 140.018 68.4915 142.493 69.0314 144.997C69.2499 145.34 69.4652 145.696 69.6774 146.061C69.7898 145.866 69.9053 145.68 70.0207 145.495C69.562 142.982 68.6694 140.507 67.6738 138.31C69.5713 139.084 71.5718 140.191 73.3663 141.772C73.4881 141.686 73.6066 141.593 73.7315 141.512C73.5536 141.16 73.3695 140.822 73.1822 140.491C71.2098 138.932 69.0876 137.871 67.1276 137.153L67.1308 137.156ZM98.0746 99.8926C100.893 97.1017 104.816 98.4786 104.816 98.4786L102.135 97.5101C101.944 97.473 97.4036 96.6747 92.9282 102.758C90.8153 105.629 87.1451 107.158 83.4625 107.962C91.6829 106.592 95.3344 102.606 98.0714 99.8957L98.0746 99.8926Z" fill="white"/>
<path d="M53.3931 208.463V189.023H58.7451C60.0571 189.023 61.1931 189.167 62.1531 189.455C63.1131 189.743 63.8571 190.263 64.3851 191.015C64.9291 191.751 65.2011 192.799 65.2011 194.159C65.2011 194.959 65.1371 195.671 65.0091 196.295C64.8811 196.919 64.6411 197.463 64.2891 197.927C63.9531 198.375 63.4651 198.751 62.8251 199.055L65.4891 208.463H61.0491L58.9131 199.751H57.6891V208.463H53.3931ZM57.6891 197.279H58.8891C59.4971 197.279 59.9691 197.175 60.3051 196.967C60.6411 196.743 60.8731 196.431 61.0011 196.031C61.1451 195.615 61.2171 195.119 61.2171 194.543C61.2171 193.711 61.0651 193.063 60.7611 192.599C60.4571 192.135 59.8971 191.903 59.0811 191.903H57.6891V197.279ZM67.7838 208.463V189.023H76.5198V191.951H72.0798V196.775H75.4638V199.751H72.0798V205.559H76.5678V208.463H67.7838ZM80.2701 208.463V192.215H77.3421V189.023H87.4941V192.215H84.5901V208.463H80.2701ZM94.8216 208.751C93.3336 208.751 92.1656 208.511 91.3176 208.031C90.4856 207.535 89.9016 206.823 89.5656 205.895C89.2296 204.951 89.0616 203.799 89.0616 202.439V189.023H93.3096V203.087C93.3096 203.487 93.3416 203.887 93.4056 204.287C93.4696 204.687 93.6056 205.015 93.8136 205.271C94.0376 205.527 94.3736 205.655 94.8216 205.655C95.2856 205.655 95.6216 205.527 95.8296 205.271C96.0376 205.015 96.1656 204.687 96.2136 204.287C96.2776 203.887 96.3096 203.487 96.3096 203.087V189.023H100.582V202.439C100.582 203.799 100.406 204.951 100.054 205.895C99.7176 206.823 99.1336 207.535 98.3016 208.031C97.4696 208.511 96.3096 208.751 94.8216 208.751ZM103.315 208.463V189.023H108.667C109.979 189.023 111.115 189.167 112.075 189.455C113.035 189.743 113.779 190.263 114.307 191.015C114.851 191.751 115.123 192.799 115.123 194.159C115.123 194.959 115.059 195.671 114.931 196.295C114.803 196.919 114.563 197.463 114.211 197.927C113.875 198.375 113.387 198.751 112.747 199.055L115.411 208.463H110.971L108.835 199.751H107.611V208.463H103.315ZM107.611 197.279H108.811C109.419 197.279 109.891 197.175 110.227 196.967C110.563 196.743 110.795 196.431 110.923 196.031C111.067 195.615 111.139 195.119 111.139 194.543C111.139 193.711 110.987 193.063 110.683 192.599C110.379 192.135 109.819 191.903 109.003 191.903H107.611V197.279ZM117.706 208.463V189.023H120.73L124.714 198.383V189.023H128.266V208.463H125.362L121.378 198.383V208.463H117.706ZM136.319 208.751C135.103 208.751 134.087 208.535 133.271 208.103C132.455 207.671 131.839 207.007 131.423 206.111C131.007 205.199 130.775 204.023 130.727 202.583L134.399 202.031C134.415 202.863 134.487 203.535 134.615 204.047C134.759 204.559 134.951 204.927 135.191 205.151C135.447 205.375 135.751 205.487 136.103 205.487C136.551 205.487 136.839 205.335 136.967 205.031C137.111 204.727 137.183 204.407 137.183 204.071C137.183 203.271 136.991 202.599 136.607 202.055C136.223 201.495 135.703 200.935 135.047 200.375L133.367 198.911C132.631 198.287 132.007 197.583 131.495 196.799C130.999 195.999 130.751 195.015 130.751 193.847C130.751 192.199 131.239 190.943 132.215 190.079C133.191 189.199 134.519 188.759 136.199 188.759C137.239 188.759 138.071 188.935 138.695 189.287C139.335 189.639 139.815 190.103 140.135 190.679C140.471 191.239 140.695 191.839 140.807 192.479C140.935 193.103 141.007 193.703 141.023 194.279L137.327 194.735C137.311 194.159 137.271 193.663 137.207 193.247C137.159 192.815 137.047 192.487 136.871 192.263C136.695 192.023 136.423 191.903 136.055 191.903C135.655 191.903 135.359 192.071 135.167 192.407C134.991 192.743 134.903 193.079 134.903 193.415C134.903 194.135 135.071 194.727 135.407 195.191C135.759 195.639 136.215 196.111 136.775 196.607L138.383 198.023C139.231 198.743 139.943 199.559 140.519 200.471C141.111 201.383 141.407 202.511 141.407 203.855C141.407 204.767 141.199 205.599 140.783 206.351C140.367 207.087 139.775 207.671 139.007 208.103C138.255 208.535 137.359 208.751 136.319 208.751Z" fill="#4F71AF"/>
<path d="M75.5813 252.06V235.86H77.6413L81.5813 245.1V235.86H84.0213V252.06H82.0613L78.1013 242.38V252.06H75.5813ZM86.5598 252.06V235.86H89.4798V252.06H86.5598ZM91.9876 252.06V235.86H94.0476L97.9876 245.1V235.86H100.428V252.06H98.4676L94.5076 242.38V252.06H91.9876ZM101.866 252.46V250.38C102.293 250.38 102.646 250.353 102.926 250.3C103.206 250.246 103.419 250.153 103.566 250.02C103.726 249.873 103.839 249.666 103.906 249.4C103.973 249.12 104.006 248.766 104.006 248.34V235.86H106.946V248.46C106.946 249.366 106.839 250.12 106.626 250.72C106.413 251.306 106.039 251.746 105.506 252.04C104.986 252.32 104.246 252.46 103.286 252.46H101.866ZM108.589 252.06L111.829 235.86H114.989L118.229 252.06H115.489L114.849 248.32H112.029L111.369 252.06H108.589ZM112.329 246.44H114.529L113.429 239.64L112.329 246.44Z" fill="#E76E68"/>
</g>
<defs>
<clipPath id="clip0_225_851">
<rect width="193" height="278" fill="white"/>
</clipPath>
</defs>
</svg>
