<svg width="24" height="24" viewBox="0 0 24 24" fill="none" xmlns="http://www.w3.org/2000/svg">
<path d="M7.50032 7.66999V6.69999C7.50032 4.44999 9.31032 2.23999 11.5603 2.02999C12.1855 1.96856 12.8166 2.03871 13.413 2.23592C14.0095 2.43313 14.558 2.75303 15.0233 3.17503C15.4886 3.59703 15.8605 4.11178 16.1148 4.68616C16.3692 5.26053 16.5005 5.8818 16.5003 6.50999V7.88999M9.00032 22H15.0003C19.0203 22 19.7403 20.39 19.9503 18.43L20.7003 12.43C20.9703 9.98999 20.2703 7.99999 16.0003 7.99999H8.00032C3.73032 7.99999 3.03031 9.98999 3.30031 12.43L4.05032 18.43C4.26032 20.39 4.98032 22 9.00032 22Z" stroke="#9A9A9A" stroke-miterlimit="10" stroke-linecap="round" stroke-linejoin="round"/>
<path d="M15.4954 12H15.5054M8.49536 12H8.50336" stroke="#9A9A9A" stroke-linecap="round" stroke-linejoin="round"/>
</svg>
