<svg width="25" height="24" viewBox="0 0 25 24" fill="none" xmlns="http://www.w3.org/2000/svg">
<path d="M9.1201 2.84004L3.7301 7.04004C2.8301 7.74004 2.1001 9.23004 2.1001 10.36V17.77C2.1001 20.09 3.9901 21.99 6.3101 21.99H17.8901C20.2101 21.99 22.1001 20.09 22.1001 17.78V10.5C22.1001 9.29004 21.2901 7.74004 20.3001 7.05004L14.1201 2.72004C12.7201 1.74004 10.4701 1.79004 9.1201 2.84004Z" stroke="#9A9A9A" stroke-linecap="round" stroke-linejoin="round"/>
<path d="M12.1001 9V18M7.6001 13.5H16.6001M10.6001 18H13.6001C15.2501 18 16.6001 16.65 16.6001 15V12C16.6001 10.35 15.2501 9 13.6001 9H10.6001C8.9501 9 7.6001 10.35 7.6001 12V15C7.6001 16.65 8.9501 18 10.6001 18Z" stroke="#9A9A9A" stroke-linecap="round" stroke-linejoin="round"/>
</svg>
