<svg width="25" height="24" viewBox="0 0 25 24" fill="none" xmlns="http://www.w3.org/2000/svg">
<path d="M13.0202 12.78C12.9405 12.77 12.8598 12.77 12.7802 12.78C11.9321 12.7514 11.1284 12.3944 10.5387 11.7842C9.94905 11.174 9.61968 10.3585 9.62016 9.50999C9.62016 7.69999 11.0802 6.22999 12.9002 6.22999C13.7596 6.22849 14.5852 6.5648 15.199 7.16639C15.8128 7.76798 16.1655 8.58668 16.1813 9.44597C16.197 10.3053 15.8745 11.1363 15.2831 11.76C14.6918 12.3837 13.8791 12.75 13.0202 12.78ZM19.6402 19.38C17.8024 21.0691 15.3962 22.0044 12.9002 22C10.3002 22 7.94016 21.01 6.16016 19.38C6.26016 18.44 6.86016 17.52 7.93016 16.8C10.6702 14.98 15.1502 14.98 17.8702 16.8C18.9402 17.52 19.5402 18.44 19.6402 19.38Z" stroke="#9A9A9A" stroke-linecap="round" stroke-linejoin="round"/>
<path d="M12.9001 22C18.4231 22 22.9001 17.523 22.9001 12C22.9001 6.477 18.4231 2 12.9001 2C7.37715 2 2.90015 6.477 2.90015 12C2.90015 17.523 7.37715 22 12.9001 22Z" stroke="#9A9A9A" stroke-linecap="round" stroke-linejoin="round"/>
</svg>
