<svg width="25" height="24" viewBox="0 0 25 24" fill="none" xmlns="http://www.w3.org/2000/svg">
<path d="M4.67993 7.43994L13.5099 12.5499L22.2799 7.46994M13.5099 21.6099V12.5399" stroke="#9A9A9A" stroke-linecap="round" stroke-linejoin="round"/>
<path d="M11.4401 2.48L6.10015 5.45C4.89015 6.12 3.90015 7.8 3.90015 9.18V14.83C3.90015 16.21 4.89015 17.89 6.10015 18.56L11.4401 21.53C12.5801 22.16 14.4501 22.16 15.5901 21.53L20.9301 18.56C22.1401 17.89 23.1301 16.21 23.1301 14.83V9.18C23.1301 7.8 22.1401 6.12 20.9301 5.45L15.5901 2.48C14.4401 1.84 12.5801 1.84 11.4401 2.48Z" stroke="#9A9A9A" stroke-linecap="round" stroke-linejoin="round"/>
<path d="M18.5098 13.24V9.57998L9.01978 4.09998" stroke="#9A9A9A" stroke-linecap="round" stroke-linejoin="round"/>
</svg>
