<svg width="20" height="21" viewBox="0 0 20 21" fill="none" xmlns="http://www.w3.org/2000/svg">
<g id="ic:round-plus">
<rect y="0.5" width="20" height="20" rx="10" fill="#E76E68"/>
<path id="Vector" d="M15 11.3307H10.8333V15.4974C10.8333 15.7184 10.7455 15.9304 10.5892 16.0867C10.4329 16.2429 10.221 16.3307 9.99996 16.3307C9.77895 16.3307 9.56698 16.2429 9.4107 16.0867C9.25442 15.9304 9.16663 15.7184 9.16663 15.4974V11.3307H4.99996C4.77895 11.3307 4.56698 11.2429 4.4107 11.0867C4.25442 10.9304 4.16663 10.7184 4.16663 10.4974C4.16663 10.2764 4.25442 10.0644 4.4107 9.90814C4.56698 9.75186 4.77895 9.66406 4.99996 9.66406H9.16663V5.4974C9.16663 5.27638 9.25442 5.06442 9.4107 4.90814C9.56698 4.75186 9.77895 4.66406 9.99996 4.66406C10.221 4.66406 10.4329 4.75186 10.5892 4.90814C10.7455 5.06442 10.8333 5.27638 10.8333 5.4974V9.66406H15C15.221 9.66406 15.4329 9.75186 15.5892 9.90814C15.7455 10.0644 15.8333 10.2764 15.8333 10.4974C15.8333 10.7184 15.7455 10.9304 15.5892 11.0867C15.4329 11.2429 15.221 11.3307 15 11.3307Z" fill="white"/>
</g>
</svg>
