<svg width="24" height="28" viewBox="0 0 24 28" fill="none" xmlns="http://www.w3.org/2000/svg">
<g id="ic:outline-apple">
<path id="Vector" d="M19.5506 26.6323C18.0555 28.0817 16.4231 27.8528 14.8517 27.1663C13.1887 26.4645 11.6631 26.434 9.90859 27.1663C7.71167 28.1122 6.55218 27.8376 5.24013 26.6323C-2.205 18.9584 -1.10654 7.27195 7.34551 6.84477C9.40513 6.95156 10.8392 7.97374 12.0445 8.06528C13.8447 7.69913 15.5687 6.64644 17.491 6.78374C19.7947 6.96682 21.534 7.88221 22.6782 9.5299C17.9182 12.3828 19.0472 18.6532 23.4105 20.4077C22.5409 22.6962 21.4119 24.9694 19.5354 26.6476L19.5506 26.6323ZM11.8919 6.75323C11.6631 3.35105 14.4245 0.543872 17.5978 0.269257C18.0403 4.20541 14.0278 7.13464 11.8919 6.75323Z" fill="#333238"/>
</g>
</svg>
