<svg width="25" height="24" viewBox="0 0 25 24" fill="none" xmlns="http://www.w3.org/2000/svg">
<path d="M10.75 8H13.75M7.01002 22H17.49C20.25 22 21.35 20.31 21.48 18.25L22 9.99C22.0324 9.47783 21.9594 8.96446 21.7856 8.48161C21.6117 7.99876 21.3407 7.5567 20.9893 7.18275C20.6378 6.80879 20.2134 6.51089 19.7422 6.30746C19.2711 6.10403 18.7632 5.99939 18.25 6C17.64 6 17.08 5.65 16.8 5.11L16.08 3.66C15.62 2.75 14.42 2 13.4 2H11.11C10.08 2 8.88001 2.75 8.42001 3.66L7.70001 5.11C7.42001 5.65 6.86002 6 6.25002 6C4.08001 6 2.36001 7.83 2.50001 9.99L3.02001 18.25C3.14001 20.31 4.25002 22 7.01002 22Z" stroke="#E76E68" stroke-width="1.5" stroke-linecap="round" stroke-linejoin="round"/>
<path d="M12.25 18C14.04 18 15.5 16.54 15.5 14.75C15.5 12.96 14.04 11.5 12.25 11.5C10.46 11.5 9 12.96 9 14.75C9 16.54 10.46 18 12.25 18Z" stroke="#E76E68" stroke-width="1.5" stroke-linecap="round" stroke-linejoin="round"/>
</svg>
