<svg width="21" height="17" viewBox="0 0 21 17" fill="none" xmlns="http://www.w3.org/2000/svg">
<path d="M10.4456 8.79389L10.5 8.8292L10.5544 8.79389L18.8156 3.43447C18.8685 3.61324 18.9 3.80705 18.9 4V13C18.9 13.5039 18.6998 13.9872 18.3435 14.3435C17.9872 14.6998 17.5039 14.9 17 14.9H4C3.49609 14.9 3.01282 14.6998 2.6565 14.3435C2.30018 13.9872 2.1 13.5039 2.1 13V4C2.1 3.80705 2.13146 3.61325 2.18437 3.43447L10.4456 8.79389ZM17 0.9H4C3.17783 0.9 2.38933 1.22661 1.80797 1.80797C1.22661 2.38933 0.9 3.17783 0.9 4V13C0.9 13.8222 1.22661 14.6107 1.80797 15.192C2.38933 15.7734 3.17783 16.1 4 16.1H17C17.8222 16.1 18.6107 15.7734 19.192 15.192C19.7734 14.6107 20.1 13.8222 20.1 13V4C20.1 3.17783 19.7734 2.38933 19.192 1.80797C18.6107 1.22661 17.8222 0.9 17 0.9ZM17 2.1C17.4268 2.1 17.8054 2.22971 18.1105 2.4605L10.5 7.38092L2.88949 2.4605C3.19463 2.22971 3.57319 2.1 4 2.1H17Z" fill="#E76E68" stroke="#E76E68" stroke-width="0.2"/>
</svg>
