<svg width="29" height="28" viewBox="0 0 29 28" fill="none" xmlns="http://www.w3.org/2000/svg">
<g clip-path="url(#clip0_225_1162)">
<path d="M14.3333 28C22.0652 28 28.3333 21.732 28.3333 14C28.3333 6.26805 22.0652 3.05176e-05 14.3333 3.05176e-05C6.60127 3.05176e-05 0.333252 6.26805 0.333252 14C0.333252 21.732 6.60127 28 14.3333 28Z" fill="#3C5A9A"/>
<path d="M18.8854 4.29733H15.784C13.9436 4.29733 11.8965 5.0714 11.8965 7.73919C11.9055 8.66875 11.8965 9.559 11.8965 10.5609H9.76733V13.949H11.9624V23.7028H15.9958V13.8846H18.6581L18.899 10.5514H15.9263C15.9263 10.5514 15.933 9.06865 15.9263 8.63805C15.9263 7.58379 17.0233 7.64416 17.0893 7.64416C17.6113 7.64416 18.6263 7.64569 18.8869 7.64416V4.29733H18.8854Z" fill="white"/>
</g>
<defs>
<clipPath id="clip0_225_1162">
<rect width="28" height="28" fill="white" transform="translate(0.333252)"/>
</clipPath>
</defs>
</svg>
