<svg width="28" height="28" viewBox="0 0 28 28" fill="none" xmlns="http://www.w3.org/2000/svg">
<g clip-path="url(#clip0_225_1156)">
<path d="M27.319 14.2619C27.319 13.1148 27.226 12.2777 27.0247 11.4096H13.939V16.5872H21.62C21.4652 17.8739 20.629 19.8117 18.7706 21.1138L18.7445 21.2872L22.882 24.4957L23.1687 24.5244C25.8013 22.0905 27.319 18.5095 27.319 14.2619Z" fill="#4285F4"/>
<path d="M13.9389 27.9038C17.702 27.9038 20.8611 26.6636 23.1686 24.5244L18.7705 21.1138C17.5936 21.9355 16.014 22.509 13.9389 22.509C10.2532 22.509 7.12507 20.0753 6.00996 16.7113L5.84651 16.7252L1.5443 20.0582L1.48804 20.2147C3.77996 24.7723 8.48775 27.9038 13.9389 27.9038Z" fill="#34A853"/>
<path d="M6.01014 16.7113C5.71591 15.8432 5.54562 14.913 5.54562 13.9519C5.54562 12.9907 5.71591 12.0606 5.99466 11.1925L5.98686 11.0076L1.63074 7.62112L1.48822 7.68899C0.543607 9.58027 0.00158691 11.7041 0.00158691 13.9519C0.00158691 16.1997 0.543607 18.3234 1.48822 20.2147L6.01014 16.7113Z" fill="#FBBC05"/>
<path d="M13.9389 5.39473C16.556 5.39473 18.3214 6.52638 19.328 7.47208L23.2615 3.62753C20.8457 1.37973 17.702 3.05176e-05 13.9389 3.05176e-05C8.48774 3.05176e-05 3.77996 3.13143 1.48804 7.68902L5.99448 11.1925C7.12506 7.8286 10.2532 5.39473 13.9389 5.39473Z" fill="#EB4335"/>
</g>
<defs>
<clipPath id="clip0_225_1156">
<rect width="27.3333" height="28" fill="white"/>
</clipPath>
</defs>
</svg>
