<svg width="20" height="20" viewBox="0 0 20 20" fill="none" xmlns="http://www.w3.org/2000/svg">
<g id="Iconsax/Linear/location">
<path id="Vector" d="M10 11.1917C10.3415 11.1917 10.6796 11.1244 10.995 10.9938C11.3104 10.8631 11.5971 10.6716 11.8385 10.4302C12.0799 10.1887 12.2714 9.90212 12.4021 9.58668C12.5328 9.27123 12.6 8.93314 12.6 8.5917C12.6 8.25026 12.5328 7.91217 12.4021 7.59672C12.2714 7.28128 12.0799 6.99465 11.8385 6.75322C11.5971 6.51179 11.3104 6.32027 10.995 6.18961C10.6796 6.05895 10.3415 5.9917 10 5.9917C9.31046 5.9917 8.64914 6.26563 8.16155 6.75322C7.67395 7.24082 7.40002 7.90214 7.40002 8.5917C7.40002 9.28126 7.67395 9.94258 8.16155 10.4302C8.64914 10.9178 9.31046 11.1917 10 11.1917Z" stroke="#E76E68" stroke-width="1.5"/>
<path id="Vector_2" d="M3.01669 7.07484C4.65836 -0.141827 15.35 -0.133494 16.9834 7.08317C17.9417 11.3165 15.3084 14.8998 13 17.1165C12.1934 17.8945 11.1165 18.3292 9.99586 18.3292C8.87523 18.3292 7.79829 17.8945 6.99169 17.1165C4.69169 14.8998 2.05836 11.3082 3.01669 7.07484Z" stroke="#E76E68" stroke-width="1.5"/>
</g>
</svg>
