<svg width="24" height="24" viewBox="0 0 24 24" fill="none" xmlns="http://www.w3.org/2000/svg">
<path d="M3 16C3 13.172 3 11.757 3.879 10.879C4.757 10 5.172 10 8 10H16C18.828 10 19.243 10 20.121 10.879C21 11.757 21 13.172 21 16C21 18.828 21 20.243 20.121 21.121C19.243 22 18.828 22 16 22H8C5.172 22 4.757 22 3.879 21.121C3 20.243 3 18.828 3 16Z" stroke="#E76E68" stroke-width="1.7"/>
<path d="M6 10V8C6 6.4087 6.63214 4.88258 7.75736 3.75736C8.88258 2.63214 10.4087 2 12 2C13.5913 2 15.1174 2.63214 16.2426 3.75736C17.3679 4.88258 18 6.4087 18 8V10" stroke="#E76E68" stroke-width="1.7" stroke-linecap="round"/>
<path d="M8 16H8.009M11.991 16H12M15.991 16H16" stroke="#E76E68" stroke-width="2" stroke-linecap="round" stroke-linejoin="round"/>
</svg>
