<svg width="20" height="20" viewBox="0 0 20 20" fill="none" xmlns="http://www.w3.org/2000/svg">
<path d="M9.18337 16.25H6.25004C5.73337 16.25 5.27504 16.2333 4.86671 16.175C2.67504 15.9333 2.08337 14.9 2.08337 12.0833V7.91666C2.08337 5.09999 2.67504 4.06666 4.86671 3.82499C5.27504 3.76666 5.73337 3.74999 6.25004 3.74999H9.13337M12.5167 3.74999H13.75C14.2667 3.74999 14.725 3.76666 15.1334 3.82499C17.325 4.06666 17.9167 5.09999 17.9167 7.91666V12.0833C17.9167 14.9 17.325 15.9333 15.1334 16.175C14.725 16.2333 14.2667 16.25 13.75 16.25H12.5167M12.5 1.66666V18.3333" stroke="#E76E68" stroke-width="1.5" stroke-linecap="round" stroke-linejoin="round"/>
<path d="M9.24579 10H9.25245M5.91162 10H5.91995" stroke="#E76E68" stroke-width="2" stroke-linecap="round" stroke-linejoin="round"/>
</svg>
