<svg width="20" height="21" viewBox="0 0 20 21" fill="none" xmlns="http://www.w3.org/2000/svg">
<path d="M18.3333 19.1415L16.6666 17.4749M9.58329 18.3082C10.6229 18.3082 11.6524 18.1034 12.6129 17.7056C13.5734 17.3077 14.4461 16.7246 15.1812 15.9894C15.9164 15.2543 16.4995 14.3816 16.8973 13.4211C17.2952 12.4606 17.5 11.4312 17.5 10.3915C17.5 9.35189 17.2952 8.32244 16.8973 7.36194C16.4995 6.40145 15.9164 5.52872 15.1812 4.79359C14.4461 4.05846 13.5734 3.47532 12.6129 3.07747C11.6524 2.67962 10.6229 2.47485 9.58329 2.47485C7.48366 2.47485 5.47003 3.30893 3.98536 4.79359C2.5007 6.27825 1.66663 8.29189 1.66663 10.3915C1.66663 12.4912 2.5007 14.5048 3.98536 15.9894C5.47003 17.4741 7.48366 18.3082 9.58329 18.3082Z" stroke="#E76E68" stroke-width="1.5" stroke-linecap="round" stroke-linejoin="round"/>
</svg>
