<svg width="21" height="21" viewBox="0 0 21 21" fill="none" xmlns="http://www.w3.org/2000/svg">
<g id="Iconsax/Linear/shoppingcart">
<path id="Vector" d="M2.16669 1.97485H3.61669C4.51669 1.97485 5.22502 2.74985 5.15002 3.64152L4.45835 11.9415C4.43135 12.2631 4.47143 12.5867 4.57605 12.892C4.68067 13.1972 4.84756 13.4774 5.06614 13.7148C5.28471 13.9522 5.55021 14.1416 5.84581 14.271C6.14141 14.4004 6.46067 14.467 6.78335 14.4665H15.6584C16.8584 14.4665 17.9084 13.4832 18 12.2915L18.45 6.04152C18.55 4.65819 17.5 3.53319 16.1084 3.53319H5.35002M8.00002 6.97485H18M14.0417 18.6415C14.318 18.6415 14.5829 18.5318 14.7783 18.3364C14.9736 18.1411 15.0834 17.8761 15.0834 17.5999C15.0834 17.3236 14.9736 17.0586 14.7783 16.8633C14.5829 16.6679 14.318 16.5582 14.0417 16.5582C13.7654 16.5582 13.5005 16.6679 13.3051 16.8633C13.1098 17.0586 13 17.3236 13 17.5999C13 17.8761 13.1098 18.1411 13.3051 18.3364C13.5005 18.5318 13.7654 18.6415 14.0417 18.6415ZM7.37502 18.6415C7.65129 18.6415 7.91624 18.5318 8.11159 18.3364C8.30694 18.1411 8.41669 17.8761 8.41669 17.5999C8.41669 17.3236 8.30694 17.0586 8.11159 16.8633C7.91624 16.6679 7.65129 16.5582 7.37502 16.5582C7.09875 16.5582 6.8338 16.6679 6.63845 16.8633C6.4431 17.0586 6.33335 17.3236 6.33335 17.5999C6.33335 17.8761 6.4431 18.1411 6.63845 18.3364C6.8338 18.5318 7.09875 18.6415 7.37502 18.6415Z" stroke="#E76E68" stroke-width="1.5" stroke-miterlimit="10" stroke-linecap="round" stroke-linejoin="round"/>
</g>
</svg>
