<svg width="16" height="16" viewBox="0 0 16 16" fill="none" xmlns="http://www.w3.org/2000/svg">
<g id="Iconsax/Linear/shop" clip-path="url(#clip0_521_2425)">
<path id="Vector" d="M2.00671 7.48047V10.4738C2.00671 13.4671 3.20671 14.6671 6.20005 14.6671H9.79338C12.7867 14.6671 13.9867 13.4671 13.9867 10.4738V7.48047" stroke="#E76E68" stroke-width="1.5" stroke-linecap="round" stroke-linejoin="round"/>
<path id="Vector_2" d="M7.99999 7.99967C9.21999 7.99967 10.12 7.00634 9.99999 5.78634L9.55999 1.33301H6.44666L5.99999 5.78634C5.87999 7.00634 6.77999 7.99967 7.99999 7.99967Z" stroke="#E76E68" stroke-width="1.5" stroke-linecap="round" stroke-linejoin="round"/>
<path id="Vector_3" d="M12.2067 7.99967C13.5534 7.99967 14.54 6.90634 14.4067 5.56634L14.22 3.73301C13.98 1.99967 13.3134 1.33301 11.5667 1.33301H9.53338L10 6.00634C10.1134 7.10634 11.1067 7.99967 12.2067 7.99967ZM3.76004 7.99967C4.86004 7.99967 5.85338 7.10634 5.96004 6.00634L6.10671 4.53301L6.42671 1.33301H4.39338C2.64671 1.33301 1.98004 1.99967 1.74004 3.73301L1.56004 5.56634C1.42671 6.90634 2.41338 7.99967 3.76004 7.99967ZM8.00004 11.333C6.88671 11.333 6.33338 11.8863 6.33338 12.9997V14.6663H9.66671V12.9997C9.66671 11.8863 9.11338 11.333 8.00004 11.333Z" stroke="#E76E68" stroke-width="1.5" stroke-linecap="round" stroke-linejoin="round"/>
</g>
<defs>
<clipPath id="clip0_521_2425">
<rect width="16" height="16" fill="white"/>
</clipPath>
</defs>
</svg>
