<svg width="20" height="21" viewBox="0 0 20 21" fill="none" xmlns="http://www.w3.org/2000/svg">
<path d="M2.5083 9.6582V13.3999C2.5083 17.1415 4.0083 18.6415 7.74997 18.6415H12.2416C15.9833 18.6415 17.4833 17.1415 17.4833 13.3999V9.6582" stroke="#E76E68" stroke-width="1.5" stroke-linecap="round" stroke-linejoin="round"/>
<path d="M9.99999 10.3082C11.525 10.3082 12.65 9.06652 12.5 7.54152L11.95 1.97485H8.05832L7.49999 7.54152C7.34999 9.06652 8.47499 10.3082 9.99999 10.3082Z" stroke="#E76E68" stroke-width="1.5" stroke-linecap="round" stroke-linejoin="round"/>
<path d="M15.2584 10.3082C16.9417 10.3082 18.175 8.94152 18.0084 7.26652L17.775 4.97485C17.475 2.80819 16.6417 1.97485 14.4584 1.97485H11.9167L12.5 7.81652C12.6417 9.19152 13.8834 10.3082 15.2584 10.3082ZM4.70002 10.3082C6.07502 10.3082 7.31669 9.19152 7.45002 7.81652L7.63336 5.97485L8.03336 1.97485H5.49169C3.30836 1.97485 2.47502 2.80819 2.17502 4.97485L1.95002 7.26652C1.78336 8.94152 3.01669 10.3082 4.70002 10.3082ZM10 14.4749C8.60836 14.4749 7.91669 15.1665 7.91669 16.5582V18.6415H12.0834V16.5582C12.0834 15.1665 11.3917 14.4749 10 14.4749Z" stroke="#E76E68" stroke-width="1.5" stroke-linecap="round" stroke-linejoin="round"/>
</svg>
