<svg width="20" height="20" viewBox="0 0 20 20" fill="none" xmlns="http://www.w3.org/2000/svg">
<path d="M17.1583 18.3333C17.1583 15.1083 13.95 12.5 10 12.5C6.05001 12.5 2.84167 15.1083 2.84167 18.3333M10 10C11.1051 10 12.1649 9.56102 12.9463 8.77962C13.7277 7.99821 14.1667 6.93841 14.1667 5.83334C14.1667 4.72827 13.7277 3.66846 12.9463 2.88706C12.1649 2.10566 11.1051 1.66667 10 1.66667C8.89494 1.66667 7.83513 2.10566 7.05373 2.88706C6.27233 3.66846 5.83334 4.72827 5.83334 5.83334C5.83334 6.93841 6.27233 7.99821 7.05373 8.77962C7.83513 9.56102 8.89494 10 10 10Z" stroke="#E76E68" stroke-width="1.5" stroke-linecap="round" stroke-linejoin="round"/>
</svg>
