<svg xmlns="http://www.w3.org/2000/svg" width="14" height="14" viewBox="0 0 14 14" fill="none">
  <path d="M7 0.000229772C7.6406 0.000229772 8.25777 0.0835604 8.8515 0.250222C9.44523 0.416883 10.0025 0.65125 10.5233 0.953323C11.0441 1.2554 11.5181 1.62257 11.9452 2.05485C12.3722 2.48713 12.7368 2.95847 13.0389 3.46887C13.3409 3.97927 13.5779 4.53654 13.7498 5.14069C13.9216 5.74483 14.005 6.3646 13.9998 7C13.9998 7.6406 13.9164 8.25777 13.7498 8.8515C13.5831 9.44523 13.3488 10.0025 13.0467 10.5233C12.7446 11.0441 12.3774 11.5181 11.9452 11.9452C11.5129 12.3722 11.0415 12.7368 10.5311 13.0389C10.0207 13.3409 9.46346 13.5779 8.85931 13.7498C8.25517 13.9216 7.6354 14.005 7 13.9998C6.3594 13.9998 5.74223 13.9164 5.1485 13.7498C4.55477 13.5831 3.99749 13.3488 3.47668 13.0467C2.95586 12.7446 2.48192 12.3774 2.05485 11.9452C1.62778 11.5129 1.26321 11.0415 0.961136 10.5311C0.659062 10.0207 0.422091 9.46346 0.250222 8.85931C0.0783522 8.25517 -0.00497839 7.6354 0.000229772 7C0.000229772 6.3594 0.0835604 5.74223 0.250222 5.1485C0.416883 4.55477 0.65125 3.99749 0.953323 3.47668C1.2554 2.95586 1.62257 2.48192 2.05485 2.05485C2.48713 1.62778 2.95847 1.26321 3.46887 0.961136C3.97927 0.659062 4.53654 0.422091 5.14069 0.250222C5.74483 0.0783522 6.3646 -0.00497839 7 0.000229772ZM7 12.9998C7.55207 12.9998 8.0833 12.9295 8.5937 12.7889C9.1041 12.6483 9.58064 12.4451 10.0233 12.1795C10.466 11.9139 10.8723 11.6014 11.242 11.242C11.6118 10.8827 11.9243 10.4791 12.1795 10.0312C12.4347 9.58325 12.6352 9.1041 12.7811 8.5937C12.9269 8.0833 12.9998 7.55207 12.9998 7C12.9998 6.44793 12.9295 5.9167 12.7889 5.4063C12.6483 4.8959 12.4451 4.41936 12.1795 3.97666C11.9139 3.53397 11.6014 3.12773 11.242 2.75795C10.8827 2.38817 10.4791 2.07568 10.0312 1.82048C9.58325 1.56528 9.1041 1.36477 8.5937 1.21894C8.0833 1.07311 7.55207 1.0002 7 1.0002C6.44793 1.0002 5.9167 1.07051 5.4063 1.21113C4.8959 1.35175 4.41936 1.55487 3.97666 1.82048C3.53397 2.0861 3.12773 2.39859 2.75795 2.75795C2.38817 3.11732 2.07568 3.52095 1.82048 3.96885C1.56528 4.41675 1.36477 4.8959 1.21894 5.4063C1.07311 5.9167 1.0002 6.44793 1.0002 7C1.0002 7.55207 1.07051 8.0833 1.21113 8.5937C1.35175 9.1041 1.55487 9.58064 1.82048 10.0233C2.0861 10.466 2.39859 10.8723 2.75795 11.242C3.11732 11.6118 3.52095 11.9243 3.96885 12.1795C4.41675 12.4347 4.8959 12.6352 5.4063 12.7811C5.9167 12.9269 6.44793 12.9998 7 12.9998ZM7 4.0001C7.41144 4.0001 7.79945 4.07822 8.16402 4.23447C8.5286 4.39071 8.84629 4.60685 9.11712 4.88288C9.38794 5.15891 9.60148 5.47661 9.75772 5.83598C9.91397 6.19534 9.99469 6.58335 9.9999 7C9.9999 7.41144 9.92178 7.79945 9.76553 8.16402C9.60929 8.5286 9.39315 8.84629 9.11712 9.11712C8.84109 9.38794 8.52339 9.60148 8.16402 9.75772C7.80466 9.91397 7.41665 9.99469 7 9.9999C6.58856 9.9999 6.20055 9.92178 5.83598 9.76553C5.4714 9.60929 5.15371 9.39315 4.88288 9.11712C4.61206 8.84109 4.39852 8.52339 4.24228 8.16402C4.08603 7.80466 4.00531 7.41665 4.0001 7C4.0001 6.58856 4.07822 6.20055 4.23447 5.83598C4.39071 5.4714 4.60685 5.15371 4.88288 4.88288C5.15891 4.61206 5.47661 4.39852 5.83598 4.24228C6.19534 4.08603 6.58335 4.00531 7 4.0001Z" fill="#E76E68"/>
</svg>